<?xml version="1.0" encoding="UTF-8" standalone="no"?>
<svg
   height="24"
   viewBox="0 -960 960 960"
   width="24"
   version="1.1"
   id="svg10350"
   sodipodi:docname="gicons_hand_x.svg"
   inkscape:version="1.1.1 (3bf5ae0d25, 2021-09-20)"
   xmlns:inkscape="http://www.inkscape.org/namespaces/inkscape"
   xmlns:sodipodi="http://sodipodi.sourceforge.net/DTD/sodipodi-0.dtd"
   xmlns="http://www.w3.org/2000/svg"
   xmlns:svg="http://www.w3.org/2000/svg">
  <defs
     id="defs10354" />
  <sodipodi:namedview
     id="namedview10352"
     pagecolor="#ffffff"
     bordercolor="#666666"
     borderopacity="1.0"
     inkscape:pageshadow="2"
     inkscape:pageopacity="0.0"
     inkscape:pagecheckerboard="0"
     showgrid="false"
     inkscape:zoom="3.744034"
     inkscape:cx="-15.090675"
     inkscape:cy="24.171789"
     inkscape:window-width="1366"
     inkscape:window-height="704"
     inkscape:window-x="0"
     inkscape:window-y="0"
     inkscape:window-maximized="1"
     inkscape:current-layer="svg10350" />
  <path
     d="m 594.02886,-148.41035 q -23.38269,13.5 -50.35031,15.79071 -26.96762,2.29071 -52.19006,-7.39582 l -383.80058,-146.76211 10.01667,-34.65063 q 6.95448,-25.95449 27.97114,-41.55256 21.01666,-15.59808 46.70319,-13.1077 l 140.95895,12.14806 -201.5,-349.00824 q -8.5,-14.72243 -4.29071,-30.43172 4.20929,-15.70929 18.93173,-24.20929 14.72243,-8.5 30.43172,-4.29071 15.70929,4.20929 24.20929,18.93172 l 278.5,482.37615 -135.12882,-12.04998 175.191,67.43971 q 8.69615,3.06218 17.62435,2.52628 8.92821,-0.5359 16.72244,-5.0359 l 244.21916,-141 q 28.57884,-16.5 37.18044,-48.6016 8.60159,-32.10159 -7.89841,-60.68043 l -140,-242.48711 q -8.5,-14.72244 -4.2907,-30.43173 4.20929,-15.70929 18.93172,-24.20929 14.72243,-8.5 30.43172,-4.29071 15.7093,4.20929 24.2093,18.93173 l 140,242.48711 q 33,57.15768 15.7968,121.36087 -17.20319,64.20319 -74.36087,97.20319 z m -123.62694,-298.12813 -120,-207.84609 q -8.5,-14.72243 -4.2907,-30.43173 4.20929,-15.70929 18.93172,-24.20929 14.72243,-8.5 30.43172,-4.29071 15.7093,4.2093 24.2093,18.93173 l 120,207.84609 z m 138.56407,-80 -100,-173.20508 q -8.5,-14.72243 -4.29071,-30.43172 4.20929,-15.70929 18.93172,-24.20929 14.72244,-8.5 30.43173,-4.29071 15.70929,4.20929 24.20929,18.93172 l 100,173.20508 z m -29.28203,109.28204 z"
     id="path10348" />
</svg>
