<?xml version="1.0" encoding="UTF-8" standalone="no"?>
<svg
   height="24"
   viewBox="0 -960 960 960"
   width="24"
   version="1.1"
   id="svg10350"
   sodipodi:docname="gicons_hand_default.svg"
   inkscape:version="1.1.1 (3bf5ae0d25, 2021-09-20)"
   xmlns:inkscape="http://www.inkscape.org/namespaces/inkscape"
   xmlns:sodipodi="http://sodipodi.sourceforge.net/DTD/sodipodi-0.dtd"
   xmlns="http://www.w3.org/2000/svg"
   xmlns:svg="http://www.w3.org/2000/svg">
  <defs
     id="defs10354" />
  <sodipodi:namedview
     id="namedview10352"
     pagecolor="#ffffff"
     bordercolor="#666666"
     borderopacity="1.0"
     inkscape:pageshadow="2"
     inkscape:pageopacity="0.0"
     inkscape:pagecheckerboard="0"
     showgrid="false"
     inkscape:zoom="17.848399"
     inkscape:cx="10.056924"
     inkscape:cy="11.737747"
     inkscape:window-width="1366"
     inkscape:window-height="704"
     inkscape:window-x="0"
     inkscape:window-y="0"
     inkscape:window-maximized="1"
     inkscape:current-layer="svg10350" />
  <path
     d="M398-120q-27 0-51.5-11.5T305-164L46-483l26-25q19-19 45-22t47 12l116 81v-403q0-17 11.5-28.5T320-880q17 0 28.5 11.5T360-840v557l-111-78 118 146q6 7 14 11t17 4h282q33 0 56.5-23.5T760-280v-280q0-17 11.5-28.5T800-600q17 0 28.5 11.5T840-560v280q0 66-47 113t-113 47H398Zm42-320v-240q0-17 11.5-28.5T480-720q17 0 28.5 11.5T520-680v240h-80Zm160 0v-200q0-17 11.5-28.5T640-680q17 0 28.5 11.5T680-640v200h-80Zm-80 80Z"
     id="path10348" />
</svg>
