<?xml version="1.0" encoding="UTF-8" standalone="no"?>
<svg
   height="24"
   viewBox="0 -960 960 960"
   width="24"
   version="1.1"
   id="svg10350"
   sodipodi:docname="gicons_hand_y.svg"
   inkscape:version="1.1.1 (3bf5ae0d25, 2021-09-20)"
   xmlns:inkscape="http://www.inkscape.org/namespaces/inkscape"
   xmlns:sodipodi="http://sodipodi.sourceforge.net/DTD/sodipodi-0.dtd"
   xmlns="http://www.w3.org/2000/svg"
   xmlns:svg="http://www.w3.org/2000/svg">
  <defs
     id="defs10354" />
  <sodipodi:namedview
     id="namedview10352"
     pagecolor="#ffffff"
     bordercolor="#666666"
     borderopacity="1.0"
     inkscape:pageshadow="2"
     inkscape:pageopacity="0.0"
     inkscape:pagecheckerboard="0"
     showgrid="false"
     inkscape:zoom="3.744034"
     inkscape:cx="-15.090675"
     inkscape:cy="24.171789"
     inkscape:window-width="1366"
     inkscape:window-height="704"
     inkscape:window-x="0"
     inkscape:window-y="0"
     inkscape:window-maximized="1"
     inkscape:current-layer="svg10350" />
  <path
     d="m 142.47962,-263.11923 q -19.09189,-19.09188 -28.28427,-44.54773 -9.19239,-25.45584 -6.36396,-52.3259 l 42.4264,-408.70772 36.06245,0.70711 q 26.87006,0 47.37615,16.26346 20.5061,16.26345 24.74874,41.7193 l 24.74874,139.30003 284.96403,-284.96403 q 12.02082,-12.02082 28.28427,-12.02082 16.26346,0 28.28427,12.02082 12.02082,12.02081 12.02082,28.28427 0,16.26346 -12.02082,28.28427 l -393.85847,393.85848 -23.33453,-133.64318 -19.79899,186.67619 q -0.7071,9.19239 2.12132,17.67767 2.82843,8.48528 9.19239,14.84924 l 199.40411,199.40411 q 23.33453,23.334525 56.56855,23.334525 33.23401,0 56.56854,-23.334525 l 197.9899,-197.9899 q 12.02081,-12.02081 28.28427,-12.02081 16.26345,0 28.28427,12.02081 12.02081,12.02082 12.02081,28.28427 0,16.26346 -12.02081,28.28428 L 568.1579,-63.715116 q -46.66905,46.669048 -113.13708,46.669048 -66.46804,0 -113.13709,-46.669048 z M 398.45227,-459.69491 568.1579,-629.40054 q 12.02082,-12.02082 28.28427,-12.02082 16.26346,0 28.28427,12.02082 12.02082,12.02081 12.02082,28.28427 0,16.26346 -12.02082,28.28427 l -169.70562,169.70563 z m 113.13709,113.13708 141.42135,-141.42135 Q 665.03153,-500 681.29499,-500 q 16.26345,0 28.28427,12.02082 12.02081,12.02081 12.02081,28.28427 0,16.26345 -12.02081,28.28427 L 568.1579,-289.98929 Z m -113.13709,0 z"
     id="path10348" />
</svg>
