<?xml version="1.0" encoding="UTF-8" standalone="no"?>
<svg
   height="24"
   viewBox="0 -960 960 960"
   width="24"
   version="1.1"
   id="svg4"
   sodipodi:docname="turn_y.svg"
   inkscape:version="1.1.1 (3bf5ae0d25, 2021-09-20)"
   xmlns:inkscape="http://www.inkscape.org/namespaces/inkscape"
   xmlns:sodipodi="http://sodipodi.sourceforge.net/DTD/sodipodi-0.dtd"
   xmlns="http://www.w3.org/2000/svg"
   xmlns:svg="http://www.w3.org/2000/svg">
  <defs
     id="defs8" />
  <sodipodi:namedview
     id="namedview6"
     pagecolor="#ffffff"
     bordercolor="#666666"
     borderopacity="1.0"
     inkscape:pageshadow="2"
     inkscape:pageopacity="0.0"
     inkscape:pagecheckerboard="0"
     showgrid="false"
     showguides="false"
     inkscape:guide-bbox="true"
     inkscape:zoom="10.604578"
     inkscape:cx="10.891522"
     inkscape:cy="16.077962"
     inkscape:window-width="1366"
     inkscape:window-height="704"
     inkscape:window-x="0"
     inkscape:window-y="0"
     inkscape:window-maximized="1"
     inkscape:current-layer="svg4">
    <sodipodi:guide
       position="720,690"
       orientation="1,0"
       id="guide1689" />
    <sodipodi:guide
       position="720,690"
       orientation="0,1"
       id="guide1691" />
    <sodipodi:guide
       position="706,400"
       orientation="0,1"
       id="guide1693" />
    <sodipodi:guide
       position="720,400"
       orientation="1,0"
       id="guide1733" />
    <sodipodi:guide
       position="253,707"
       orientation="0.70710678,0.70710678"
       id="guide7647"
       inkscape:label=""
       inkscape:locked="false"
       inkscape:color="rgb(0,0,255)" />
    <sodipodi:guide
       position="310,310"
       orientation="0.70710678,-0.70710678"
       id="guide7716"
       inkscape:label=""
       inkscape:locked="false"
       inkscape:color="rgb(0,0,255)" />
    <sodipodi:guide
       position="310.12906,649.87094"
       orientation="0,1"
       id="guide7951" />
    <sodipodi:guide
       position="478.94248,797.07216"
       orientation="1,0"
       id="guide8165" />
  </sodipodi:namedview>
  <path
     style="display:none;fill:#ff0000;stroke:none;stroke-width:40px;stroke-linecap:butt;stroke-linejoin:miter;stroke-opacity:1"
     d="m 720,-690 -32,90 h 32 v -90"
     id="path1806" />
  <path
     style="display:none;fill:#ff0000;stroke:none;stroke-width:40px;stroke-linecap:butt;stroke-linejoin:miter;stroke-opacity:1"
     d="m 720,-310 -32,-90 h 32 v 90"
     id="path2120" />
  <path
     d="m 549.50283,-420.11029 -69.28203,-40 140.00001,-242.48712 242.48702,140 -39.9999,69.28205 -94.79284,-55.81409 c 16.06962,42.83339 21.59658,87.59361 17.05107,133.46668 -4.54552,45.87306 -18.31828,88.72818 -41.31827,128.56534 -44.66667,77.36493 -121.54217,124.8006 -195.12233,149.77078 -83.3095,28.27189 -148.4958,21.34537 -224.68526,-22.64263 -76.18947,-43.988 -143.42,-119.39793 -167.40828,-204.04035 -22.296278,-78.67223 -11.70702,-165.72285 32.95964,-243.08781 22.99999,-39.83716 53.22723,-73.19229 90.68172,-100.0653 37.45448,-26.87311 78.98151,-44.46667 124.11106,-51.96672 l -95.73277,-54.18588 39.99998,-69.28209 242.48712,140 -140,242.48714 -69.28203,-40 84.47001,-146.3063 c -42.52828,-1.00553 -82.51505,9.58684 -119.49025,30.9631 -36.97522,21.37627 -66.29614,50.82834 -87.96282,88.35608 -33.33333,57.73504 -41.34979,123.33866 -24.37822,182.22432 18.69201,64.85494 75.19091,127.20143 129.54484,155.62178 54.35391,28.42036 111.9501,29.88141 164.90377,14.37821 58.81388,-17.21884 112.28845,-54.4893 145.62178,-112.22432 21.66666,-37.52777 32.51245,-77.64642 32.53719,-120.35607 0.0248,-42.70959 -10.79526,-82.63532 -32.93021,-118.96314 z"
     id="path3218"
     style="display:inline;fill:#000000;stroke:none"
     sodipodi:nodetypes="ccccccssszssscccccccssszssscc" />
</svg>
